<?xml version="1.0" encoding="UTF-8"?>
<svg width="32px" height="32px" viewBox="0 0 32 32" version="1.1" xmlns="http://www.w3.org/2000/svg" xmlns:xlink="http://www.w3.org/1999/xlink">
    <title>pdf</title>
    <g id="pdf" stroke="none" stroke-width="1" fill="none" fill-rule="evenodd">
        <g transform="translate(4.000000, 0.000000)" fill-rule="nonzero">
            <path d="M1.97323462,25.5019531 L1.97323462,22.7448622 L3.28872437,22.7448622 C5.16030752,22.7448622 6.3083713,21.7124986 6.3083713,19.8641349 C6.3083713,18.127044 5.17824601,17.0019531 3.39037585,17.0019531 L0,17.0019531 L0,25.5019531 L1.97323462,25.5019531 Z M2.87613895,21.2241349 L1.97921412,21.2241349 L1.97921412,18.5783168 L3.09738041,18.5783168 C3.90461276,18.5783168 4.35307517,19.0604986 4.35307517,19.9012259 C4.35307517,20.8779531 3.89863326,21.2241349 2.87613895,21.2241349 Z M10.547836,25.4401349 C12.9515945,25.4401349 14.2371868,23.9688622 14.2371868,21.2179531 C14.2371868,18.4732259 12.9515945,17.0019531 10.547836,17.0019531 L7.3428246,17.0019531 L7.3428246,25.4401349 L10.547836,25.4401349 Z M10.2428815,23.8143168 L9.32203872,23.8143168 L9.32203872,18.6215895 L10.2428815,18.6215895 C11.6002278,18.6215895 12.2161162,19.4314077 12.2161162,21.2179531 C12.2161162,23.0106804 11.6002278,23.8143168 10.2428815,23.8143168 Z M17.4003417,25.5019531 L17.4003417,22.2626804 L20.6950456,22.2626804 L20.6950456,20.6677713 L17.4003417,20.6677713 L17.4003417,18.6401349 L21,18.6401349 L21,17.0019531 L15.4211276,17.0019531 L15.4211276,25.5019531 L17.4003417,25.5019531 Z" id="PDF" fill="#16161D"></path>
            <polygon id="Path" fill="#000000" points="16 0 1.56563087e-17 6.48085016e-15 1.56563087e-17 14 2 14 2 2 14 2 14 10 22 10 22 30 2 30 2 28 1.71393009e-15 28 1.37427533e-15 32 24 32 24 8"></polygon>
        </g>
    </g>
</svg>