<svg width="32" height="32" viewBox="0 0 32 32" fill="none" xmlns="http://www.w3.org/2000/svg"><path d="M16 2C23.732 2 30 8.26801 30 16C30 23.732 23.732 30 16 30C8.26801 30 2 23.732 2 16C2 8.26801 8.26801 2 16 2ZM22.0547 9.21777C21.4537 9.22846 20.5329 9.54694 16.0986 11.3848C14.5475 12.0284 11.4448 13.3613 6.79102 15.3818C6.03561 15.6813 5.6394 15.9744 5.60449 16.2607C5.53486 16.8107 6.32988 16.9819 7.32715 17.3057C8.14247 17.5696 9.23985 17.8783 9.80859 17.8906C10.3273 17.9018 10.9041 17.69 11.54 17.2539C15.8879 14.3299 18.1297 12.8513 18.2734 12.8184C18.3731 12.796 18.5103 12.7678 18.6025 12.8506C18.6969 12.9328 18.6877 13.0882 18.6777 13.1309C18.6004 13.4666 14.519 17.1667 14.2812 17.4131C13.3834 18.3428 12.3604 18.9121 13.9365 19.9473C15.3007 20.8429 16.094 21.414 17.498 22.332C18.3957 22.9184 19.0988 23.614 20.0264 23.5293C20.4528 23.4903 20.8952 23.0905 21.1172 21.8984C21.6459 19.0807 22.6853 12.9759 22.9248 10.46C22.9472 10.2399 22.9194 9.95799 22.8994 9.83398C22.877 9.71019 22.8325 9.53286 22.6729 9.40234C22.481 9.24772 22.187 9.21559 22.0547 9.21777Z" fill="currentColor"/></svg>