<svg width="32" height="32" viewBox="0 0 32 32" fill="none" xmlns="http://www.w3.org/2000/svg"><path fill-rule="evenodd" clip-rule="evenodd" d="M16.1987 2.66666C19.6063 2.687 22.8749 4.02333 25.3211 6.39584C27.7671 8.76841 29.2019 11.9943 29.3263 15.3997C29.3909 17.1432 29.1103 18.8828 28.4995 20.5169C27.8887 22.1508 26.9599 23.6473 25.7677 24.9205C24.5752 26.194 23.1421 27.2195 21.5516 27.9363C19.9609 28.6529 18.2435 29.0479 16.4995 29.0976H16.1219C14.1393 29.0981 12.1813 28.6523 10.394 27.7943L3.47733 29.3333H3.4578C3.44332 29.3332 3.42798 29.3303 3.41482 29.3243C3.40181 29.3181 3.3904 29.3091 3.38097 29.2981C3.3715 29.2873 3.36429 29.2743 3.36013 29.2604C3.35605 29.2467 3.35434 29.2316 3.35622 29.2175L4.5255 22.224C3.42502 20.2104 2.86774 17.9453 2.90832 15.6511C2.94897 13.3565 3.58594 11.1115 4.75728 9.13802C5.92852 7.16473 7.59346 5.53052 9.588 4.39584C11.5827 3.26117 13.8387 2.66501 16.1336 2.66666H16.1987ZM11.4057 9.51041C11.2845 9.52493 11.1661 9.5582 11.0541 9.60808C10.905 9.6746 10.7698 9.76996 10.6583 9.88932C10.3433 10.2123 9.46321 10.99 9.41222 12.6224C9.36132 14.254 10.5005 15.8685 10.6609 16.0964C10.8204 16.3228 12.842 19.8499 16.1713 21.28C18.1281 22.1229 18.9863 22.2669 19.5424 22.2669C19.7715 22.2669 19.9449 22.2439 20.1257 22.2331C20.7359 22.1952 22.1119 21.4903 22.4123 20.724C22.7125 19.9573 22.7323 19.2864 22.6531 19.1524C22.574 19.0183 22.3564 18.9216 22.0295 18.75C21.7015 18.5779 20.0979 17.7208 19.7964 17.6003C19.6848 17.5484 19.5648 17.5169 19.4421 17.5079C19.3621 17.512 19.2832 17.5357 19.2143 17.5768C19.1456 17.6179 19.088 17.6752 19.0464 17.7435C18.7784 18.0772 18.1629 18.8025 17.9565 19.0117C17.9115 19.0636 17.8559 19.1049 17.7937 19.1341C17.7315 19.1632 17.6633 19.1797 17.5945 19.1809C17.4679 19.1753 17.3436 19.1421 17.2312 19.0833C16.2595 18.6707 15.3736 18.0785 14.6192 17.3399C13.9145 16.6452 13.3161 15.8504 12.8445 14.9805C12.6623 14.6427 12.845 14.468 13.0112 14.3099C13.1773 14.1517 13.3555 13.9337 13.5268 13.7448C13.6676 13.5833 13.7853 13.4025 13.8757 13.2083C13.9224 13.1183 13.9451 13.018 13.9435 12.9167C13.9419 12.8151 13.9151 12.7149 13.8653 12.6263C13.7856 12.4551 13.196 10.7975 12.9187 10.1315C12.6937 9.56209 12.4254 9.54216 12.1909 9.52474C11.9979 9.51134 11.7765 9.5054 11.5555 9.4987H11.5268L11.4057 9.51041Z" fill="currentColor"/></svg>