<svg width="32" height="32" viewBox="0 0 32 32" fill="none" xmlns="http://www.w3.org/2000/svg">
<path d="M16.9664 15.2275H29.0437C29.2363 15.2275 29.3333 15.2275 29.3333 15.0335V14.6469C29.3333 14.55 29.3333 14.4543 29.1393 14.4543C23.4388 12.908 18.995 8.55982 17.5456 2.8593L17.1591 2.66667H16.8695C16.7725 2.66667 16.6755 2.76365 16.6755 2.95628V15.0335C16.6755 15.1305 16.6755 15.2275 16.8695 15.2275H16.9664ZM16.9664 29.3333H17.353L17.5456 29.1394C19.092 23.4388 23.4388 18.9951 29.1393 17.5457L29.3333 17.2561V16.9665C29.3333 16.8695 29.2363 16.6755 29.0437 16.6755H16.9664L16.7725 16.9665V29.0437C16.7725 29.2364 16.7725 29.3333 16.9664 29.3333ZM14.7439 29.3333H15.0335C15.1305 29.3333 15.2274 29.2364 15.2274 29.0437V16.9665C15.2274 16.8695 15.2274 16.6755 15.0335 16.6755H2.95624C2.76361 16.6755 2.66663 16.8695 2.66663 16.9665V17.3531C2.66663 17.4487 2.66663 17.5457 2.85926 17.5457C8.55978 18.9951 13.0049 23.4388 14.4543 29.1394L14.7439 29.3333ZM2.95624 15.2275H15.0335C15.1305 15.2275 15.2274 15.2275 15.2274 15.0335V2.95628C15.2274 2.76365 15.2274 2.66667 15.0335 2.66667H14.6469C14.5499 2.66667 14.4543 2.66667 14.4543 2.8593C12.9079 8.46417 8.46413 13.0049 2.85926 14.4543L2.66663 14.7439V15.0335C2.66663 15.1305 2.76361 15.2275 2.95624 15.2275Z" fill="black"/>
</svg>
