<svg width="32" height="32" viewBox="0 0 32 32" fill="none" xmlns="http://www.w3.org/2000/svg">
<path d="M26.2 4H5.8C5.32261 4 4.86477 4.18964 4.52721 4.52721C4.18964 4.86477 4 5.32261 4 5.8V26.2C4 26.6773 4.18964 27.1352 4.52721 27.4728C4.86477 27.8104 5.32261 28 5.8 28H26.2C26.6773 28 27.1352 27.8104 27.4728 27.4728C27.8104 27.1352 28 26.6773 28 26.2V5.8C28 5.32261 27.8104 4.86477 27.4728 4.52721C27.1352 4.18964 26.6773 4 26.2 4ZM11.2 24.4H7.6V13.6H11.2V24.4ZM9.4 11.5C8.98741 11.4882 8.58747 11.3551 8.25011 11.1173C7.91275 10.8795 7.65293 10.5475 7.50316 10.1629C7.35337 9.77832 7.32025 9.35809 7.40793 8.95476C7.4956 8.55144 7.7002 8.18288 7.99613 7.89517C8.29208 7.60745 8.66624 7.41332 9.07188 7.33704C9.47752 7.26075 9.89664 7.30569 10.2769 7.46625C10.6571 7.6268 10.9816 7.89585 11.2098 8.23977C11.438 8.58371 11.5598 8.98725 11.56 9.4C11.5505 9.96441 11.318 10.5021 10.9133 10.8956C10.5085 11.2891 9.96447 11.5064 9.4 11.5ZM24.4 24.4H20.8V18.712C20.8 17.008 20.08 16.396 19.144 16.396C18.8696 16.4143 18.6015 16.4865 18.3551 16.6088C18.1087 16.7309 17.8888 16.9007 17.7081 17.108C17.5276 17.3155 17.3896 17.5565 17.3024 17.8173C17.2152 18.0781 17.1804 18.3536 17.2 18.628C17.194 18.6839 17.194 18.7401 17.2 18.796V24.4H13.6V13.6H17.08V15.16C17.4311 14.626 17.9133 14.1911 18.4807 13.8969C19.048 13.6028 19.6813 13.4592 20.32 13.48C22.18 13.48 24.352 14.512 24.352 17.872L24.4 24.4Z" fill="black"/>
</svg>
